<svg width="551" height="644" viewBox="0 0 551 644" fill="none" xmlns="http://www.w3.org/2000/svg">
<g clip-path="url(#clip0_10_30)">
<path d="M439.122 644H338.431V598.204H551V551.693H347.522V505.898H491.565V460.102H404.16V414.307H324.447V367.796H540.511V322H438.423V276.204H507.647V229.693H539.113V183.898H500.655V138.102H353.115V92.3067H522.331V45.7956H427.934V0H0V45.7956V92.3067V138.102V183.898V229.693V276.204V322V367.796V414.307V460.102V505.898V551.693V598.204V644H439.122Z" fill="#6A00B1"/>
<path d="M227.747 644H348.967V598.204H317.131V551.693H390.598V505.898H271.214V460.102H396.108V414.307H333.661V367.796H296.316V322H336.722V276.204H392.434V229.693H297.54V183.898H321.417V138.102H379.578V92.3067H227.134V45.7956H242.44V0H-6.10352e-05V45.7956V92.3067V138.102V183.898V229.693V276.204V322V367.796V414.307V460.102V505.898V551.693V598.204V644H227.747Z" fill="#500285"/>
<path d="M254.072 644H212.441V598.204H185.503V551.693H289.581V505.898H116.934V460.102H222.849V414.307H243.664V367.796H222.849V322H251.623V276.204H282.847V229.693H105.914V183.898H285.908V138.102H94.2822V92.3067H134.689V45.7956H282.847V0H0V45.7956V92.3067V138.102V183.898V229.693V276.204V322V367.796V414.307V460.102V505.898V551.693V598.204V644H254.072Z" fill="#38025C"/>
<path d="M179.381 644H115.098V598.204H116.322V551.693H59.9978V505.898H176.932V460.102H89.9967V414.307H67.9567V367.796H124.893V322H153.056V276.204H47.1411V229.693H125.506V183.898H156.117V138.102H110.2V92.3067H138.974V45.7956H129.791V0H3.05176e-05V45.7956V92.3067V138.102V183.898V229.693V276.204V322V367.796V414.307V460.102V505.898V551.693V598.204V644H179.381Z" fill="#210036"/>
</g>
<defs>
<clipPath id="clip0_10_30">
<rect width="551" height="644" fill="white" transform="matrix(-1 0 0 1 551 0)"/>
</clipPath>
</defs>
</svg>
